<!DOCTYPE svg PUBLIC "-//W3C//DTD SVG 1.1//EN" "http://www.w3.org/Graphics/SVG/1.1/DTD/svg11.dtd">

<!-- Uploaded to: SVG Repo, www.svgrepo.com, Transformed by: SVG Repo Mixer Tools -->
<svg fill="#fafafa" width="44px" height="44px" viewBox="0 0 24.00 24.00" id="goal" data-name="Flat Color" xmlns="http://www.w3.org/2000/svg" class="icon flat-color" stroke="#fafafa" stroke-width="0.00024000000000000003">

<g id="SVGRepo_bgCarrier" stroke-width="0"/>

<g id="SVGRepo_tracerCarrier" stroke-linecap="round" stroke-linejoin="round"/>

<g id="SVGRepo_iconCarrier">

<path id="secondary" d="M21.92,5.62A1,1,0,0,0,21,5H19V3a1,1,0,0,0-.62-.92,1,1,0,0,0-1.09.21l-3,3A1,1,0,0,0,14,6V8.59l-2.21,2.2a1,1,0,0,0,0,1.42,1,1,0,0,0,1.42,0L15.41,10H18a1,1,0,0,0,.71-.29l3-3A1,1,0,0,0,21.92,5.62Z" style="fill: #ff0000fafafa;"/>

<path id="primary" d="M12,22A10,10,0,0,1,12,2h.42a1,1,0,1,1-.18,2H12a8,8,0,1,0,8,8,1.93,1.93,0,0,0,0-.24,1,1,0,0,1,.91-1.09,1,1,0,0,1,1.09.91c0,.14,0,.28,0,.42A10,10,0,0,1,12,22Zm5.88-8.8a1,1,0,0,0-2-.4A4,4,0,1,1,11.2,8.08a1,1,0,1,0-.4-2,6,6,0,1,0,7.08,7.08Z" style="fill: #ff0000fafafa000000;"/>

</g>

</svg>